<?xml version="1.0" standalone="no"?>
<!DOCTYPE svg PUBLIC "-//W3C//DTD SVG 20010904//EN"
 "http://www.w3.org/TR/2001/REC-SVG-20010904/DTD/svg10.dtd">
<svg version="1.0" xmlns="http://www.w3.org/2000/svg"
 width="200.000000pt" height="200.000000pt" viewBox="0 0 200.000000 200.000000"
 preserveAspectRatio="xMidYMid meet">

<g transform="translate(0.000000,200.000000) scale(0.100000,-0.100000)"
fill="#000000" stroke="none">
<path d="M1380 1819 c-33 -10 -70 -35 -70 -48 0 -3 20 -17 45 -30 30 -16 52
-21 70 -17 34 9 65 -9 65 -37 0 -24 57 -87 78 -87 6 0 16 17 23 38 31 105 -97
214 -211 181z"/>
<path d="M940 1769 c-151 -24 -299 -94 -385 -183 -159 -164 -217 -359 -165
-560 33 -129 94 -226 197 -311 102 -84 198 -127 340 -151 105 -18 204 -10 306
25 314 108 498 413 424 701 -25 95 -81 201 -140 266 -65 71 -177 146 -262 174
-57 19 -224 52 -250 49 -5 -1 -35 -5 -65 -10z m105 -117 c10 -39 92 -56 131
-27 42 31 101 13 90 -28 -5 -21 0 -29 27 -46 29 -18 38 -19 65 -9 29 11 34 10
54 -10 19 -19 21 -26 11 -51 -9 -24 -8 -34 5 -53 22 -32 32 -38 69 -38 29 0
33 -4 39 -36 6 -31 3 -40 -15 -54 -19 -14 -21 -21 -14 -50 7 -24 16 -36 34
-40 20 -5 24 -12 24 -45 0 -33 -4 -40 -25 -45 -36 -9 -49 -60 -25 -104 12 -22
16 -42 11 -61 -6 -24 -11 -27 -36 -21 -24 4 -33 0 -50 -23 -11 -16 -20 -45
-20 -64 0 -43 -20 -61 -61 -53 -37 7 -89 -27 -89 -58 0 -13 -11 -26 -27 -33
-35 -17 -43 -16 -64 3 -26 23 -84 9 -110 -28 -28 -38 -77 -37 -96 3 -10 21
-23 28 -60 34 -41 6 -49 4 -63 -15 -14 -18 -21 -20 -51 -13 -29 8 -34 14 -34
40 0 49 -21 65 -75 58 -56 -8 -83 10 -139 93 -54 81 -72 135 -78 229 -6 87 3
113 37 113 26 0 33 28 15 63 -8 16 -15 43 -15 59 0 25 3 28 34 28 29 0 37 6
56 37 18 31 19 40 9 65 -17 42 1 59 62 57 56 -2 89 19 89 58 0 17 10 28 36 40
35 17 36 17 52 -4 16 -20 21 -21 60 -11 33 8 42 15 42 33 0 29 2 30 49 30 33
0 41 -4 46 -23z"/>
<path d="M953 1539 c-211 -36 -373 -244 -334 -430 42 -208 258 -356 463 -320
134 23 261 118 314 234 24 52 29 75 29 142 0 71 -4 88 -32 145 -50 101 -117
163 -219 204 -70 28 -150 37 -221 25z m234 -69 c76 -35 137 -95 172 -169 36
-78 37 -202 1 -276 -122 -250 -500 -275 -652 -44 -66 102 -75 213 -26 320 44
97 152 181 257 199 77 14 179 2 248 -30z"/>
<path d="M958 1470 c-96 -16 -200 -96 -244 -188 -23 -48 -30 -150 -14 -208 18
-65 95 -145 177 -186 56 -27 75 -32 143 -32 68 0 87 5 143 32 196 97 248 319
110 472 -78 86 -200 129 -315 110z m19 -96 c-3 -3 -12 -4 -19 -1 -8 3 -5 6 6
6 11 1 17 -2 13 -5z m116 -1 c-7 -2 -19 -2 -25 0 -7 3 -2 5 12 5 14 0 19 -2
13 -5z m-56 -55 c-3 -7 -5 -2 -5 12 0 14 2 19 5 13 2 -7 2 -19 0 -25z m160
-20 c-3 -8 -6 -5 -6 6 -1 11 2 17 5 13 3 -3 4 -12 1 -19z m-110 -48 c38 -23
55 -52 55 -95 0 -43 -17 -72 -55 -95 -85 -52 -196 3 -197 98 -1 90 113 144
197 92z m116 -147 c-7 -2 -19 -2 -25 0 -7 3 -2 5 12 5 14 0 19 -2 13 -5z
m-406 -25 c-3 -8 -6 -5 -6 6 -1 11 2 17 5 13 3 -3 4 -12 1 -19z m236 -75 c-7
-2 -19 -2 -25 0 -7 3 -2 5 12 5 14 0 19 -2 13 -5z m-36 -69 c-3 -3 -12 -4 -19
-1 -8 3 -5 6 6 6 11 1 17 -2 13 -5z m66 -1 c-7 -2 -19 -2 -25 0 -7 3 -2 5 12
5 14 0 19 -2 13 -5z"/>
<path d="M100 335 c0 -48 2 -55 20 -55 11 0 20 6 20 13 0 8 20 17 52 23 39 6
54 14 56 27 7 34 -17 47 -84 47 l-64 0 0 -55z m98 18 c2 -9 -7 -13 -27 -13
-30 0 -39 9 -24 24 11 10 46 3 51 -11z"/>
<path d="M270 335 c0 -52 1 -55 25 -55 24 0 25 3 25 55 0 52 -1 55 -25 55 -24
0 -25 -3 -25 -55z"/>
<path d="M358 379 c-24 -13 -23 -61 0 -82 27 -25 94 -22 118 4 l19 21 -52 -7
c-45 -6 -54 -4 -60 11 -9 23 23 47 48 34 23 -13 59 -13 59 0 0 27 -96 41 -132
19z"/>
<path d="M510 380 c0 -5 9 -10 20 -10 17 0 20 -7 20 -45 0 -38 3 -45 19 -45
16 0 20 8 23 43 2 35 7 43 26 45 48 7 19 22 -43 22 -37 0 -65 -4 -65 -10z"/>
<path d="M700 335 c0 -48 2 -55 20 -55 11 0 20 7 20 15 0 10 10 15 29 15 16 0
31 -6 35 -15 3 -8 13 -15 23 -15 15 0 19 9 20 43 1 59 -9 67 -83 67 l-64 0 0
-55z m98 18 c2 -9 -7 -13 -27 -13 -30 0 -39 9 -24 24 11 10 46 3 51 -11z"/>
<path d="M888 379 c-25 -14 -24 -75 1 -89 29 -15 83 -12 109 6 26 18 29 56 6
78 -18 18 -89 21 -116 5z m76 -24 c20 -21 9 -45 -20 -45 -32 0 -43 29 -19 46
23 17 20 17 39 -1z"/>
<path d="M1040 335 l0 -55 61 0 c65 0 99 12 99 35 0 8 -4 15 -8 15 -4 0 -8 12
-7 28 0 27 -1 27 -72 30 l-73 3 0 -56z m95 20 c0 -5 -10 -11 -22 -13 -16 -2
-23 2 -23 13 0 11 7 15 23 13 12 -2 22 -7 22 -13z m10 -35 c4 -6 -7 -10 -24
-10 -17 0 -31 5 -31 10 0 6 11 10 24 10 14 0 28 -4 31 -10z"/>
<path d="M1238 379 c-25 -14 -24 -75 1 -89 29 -15 83 -12 109 6 26 18 29 56 6
78 -18 18 -89 21 -116 5z m76 -24 c20 -21 9 -45 -20 -45 -32 0 -43 29 -19 46
23 17 20 17 39 -1z"/>
<path d="M1390 380 c0 -5 9 -10 20 -10 17 0 20 -7 20 -45 0 -38 3 -45 19 -45
16 0 20 8 23 43 2 35 7 43 26 45 48 7 19 22 -43 22 -37 0 -65 -4 -65 -10z"/>
<path d="M1540 335 c0 -48 2 -55 20 -55 18 0 20 7 20 55 0 48 -2 55 -20 55
-18 0 -20 -7 -20 -55z"/>
<path d="M1628 379 c-25 -14 -24 -75 1 -89 32 -17 87 -12 112 10 l24 21 -52
-6 c-45 -6 -54 -4 -60 11 -9 24 23 47 49 33 10 -6 29 -9 40 -7 21 3 21 4 4 21
-19 19 -90 23 -118 6z"/>
<path d="M1780 369 c-14 -26 -9 -31 43 -46 l42 -11 -42 -1 c-69 -2 -49 -31 21
-31 21 0 40 8 52 21 18 20 18 21 -1 35 -10 8 -32 14 -48 14 -15 0 -26 4 -22 9
3 5 21 7 40 4 21 -3 35 -1 35 5 0 14 -25 22 -70 22 -30 0 -42 -5 -50 -21z"/>
</g>
</svg>
